<svg viewBox="0 0 35 35" fill="none" xmlns="http://www.w3.org/2000/svg">
<path d="M17.5003 32.0834C13.6315 32.0869 9.92017 30.5516 7.18451 27.8159C4.44885 25.0802 2.91352 21.3689 2.917 17.5001V17.2084C3.03627 11.3637 6.63254 6.15447 12.0554 3.9712C17.4783 1.78794 23.6809 3.05221 27.8166 7.18383C31.991 11.3548 33.2404 17.6304 30.9817 23.082C28.7229 28.5337 23.4014 32.0869 17.5003 32.0834ZM17.5003 19.5563L21.2774 23.3334L23.3337 21.2772L19.5566 17.5001L23.3337 13.723L21.2774 11.6667L17.5003 15.4438L13.7233 11.6667L11.667 13.723L15.4441 17.5001L11.667 21.2772L13.7233 23.3334L17.5003 19.5578V19.5563Z" fill="#DFDFDF"/>
</svg>
