<svg width="948" height="158" viewBox="0 0 948 158" fill="none" xmlns="http://www.w3.org/2000/svg">
<path fill-rule="evenodd" clip-rule="evenodd" d="M310.366 0H248V158H275.414V99.092H292.226L328.75 158H361L323.403 97.361C344.457 91.641 359.939 72.4 359.939 49.546C359.939 22.183 337.744 0 310.366 0ZM310.366 71.694H275.414V27.399H310.366C322.604 27.399 332.525 37.315 332.525 49.546C332.525 61.778 322.604 71.694 310.366 71.694Z" fill="black"/>
<path fill-rule="evenodd" clip-rule="evenodd" d="M851.701 0L918 105.81V0H948V158H915.3L849 52.19V158H819V0H851.701Z" fill="black"/>
<path d="M466 45V158" stroke="black" stroke-width="30"/>
<path d="M481 0H451V30H481V0Z" fill="#FE5E22"/>
<path fill-rule="evenodd" clip-rule="evenodd" d="M128 79C128 51.938 106.062 30 79 30V0C122.63 0 158 35.37 158 79C158 122.63 122.63 158 79 158C35.37 158 0 122.63 0 79H30C30 106.062 51.938 128 79 128C106.062 128 128 106.062 128 79Z" fill="black"/>
<path fill-rule="evenodd" clip-rule="evenodd" d="M699 79C699 51.938 677.062 30 650 30V0C693.63 0 729 35.37 729 79C729 122.63 693.63 158 650 158C606.37 158 571 122.63 571 79H601C601 106.062 622.938 128 650 128C677.062 128 699 106.062 699 79Z" fill="black"/>
</svg>
