<svg width="136" height="136" viewBox="0 0 136 136" fill="none" xmlns="http://www.w3.org/2000/svg">
<g filter="url(#filter0_d_0_2689)">
<circle cx="68" cy="58" r="58" fill="url(#paint0_linear_0_2689)"/>
</g>
<path d="M50.0037 81.1382H44.8618V78.5672C44.8732 68.6328 52.9238 60.5821 62.8583 60.5708H73.142C83.0764 60.5821 91.1271 68.6328 91.1384 78.5672V81.1382H85.9966V78.5672C85.9881 71.4714 80.2378 65.7211 73.142 65.7126H62.8583C55.7624 65.7211 50.0122 71.4714 50.0037 78.5672V81.1382ZM68.0001 57.9999C60.9007 57.9999 55.1455 52.2447 55.1455 45.1453C55.1455 38.0459 60.9007 32.2906 68.0001 32.2906C75.0995 32.2906 80.8547 38.0459 80.8547 45.1453C80.8462 52.2411 75.096 57.9914 68.0001 57.9999ZM68.0001 37.4325C63.7405 37.4325 60.2873 40.8856 60.2873 45.1453C60.2873 49.4049 63.7405 52.858 68.0001 52.858C72.2598 52.858 75.7129 49.4049 75.7129 45.1453C75.7129 40.8856 72.2598 37.4325 68.0001 37.4325Z" fill="white"/>
<defs>
<filter id="filter0_d_0_2689" x="0" y="0" width="136" height="136" filterUnits="userSpaceOnUse" color-interpolation-filters="sRGB">
<feFlood flood-opacity="0" result="BackgroundImageFix"/>
<feColorMatrix in="SourceAlpha" type="matrix" values="0 0 0 0 0 0 0 0 0 0 0 0 0 0 0 0 0 0 127 0" result="hardAlpha"/>
<feOffset dy="10"/>
<feGaussianBlur stdDeviation="5"/>
<feColorMatrix type="matrix" values="0 0 0 0 0 0 0 0 0 0 0 0 0 0 0 0 0 0 0.06 0"/>
<feBlend mode="normal" in2="BackgroundImageFix" result="effect1_dropShadow_0_2689"/>
<feBlend mode="normal" in="SourceGraphic" in2="effect1_dropShadow_0_2689" result="shape"/>
</filter>
<linearGradient id="paint0_linear_0_2689" x1="-27.4769" y1="116" x2="120.703" y2="74.7257" gradientUnits="userSpaceOnUse">
<stop stop-color="#3331D1"/>
<stop offset="1" stop-color="#933FEE"/>
</linearGradient>
</defs>
</svg>
