<svg width="26" height="32" viewBox="0 0 26 32" fill="none" xmlns="http://www.w3.org/2000/svg">
<path d="M21.6824 14.0787C20.5682 12.7079 19.2944 11.6157 17.8962 10.8304C18.1252 10.5594 18.3059 10.2417 18.4226 9.88769C18.8804 8.49337 18.2116 6.83713 16.5046 6.29756L18.8976 2.12475C19.1996 1.59812 18.9283 0.927375 18.3461 0.758125C16.6159 0.255063 14.8173 0 13 0C11.1827 0 9.38413 0.255063 7.65388 0.758125C7.071 0.927562 6.80081 1.59875 7.10238 2.12475L9.49544 6.29763C7.79513 6.83444 7.11787 8.48825 7.57769 9.88844C7.694 10.2416 7.87463 10.5591 8.10431 10.8301C6.70588 11.6155 5.432 12.7078 4.31763 14.0787C2.09006 16.8191 0.8125 20.2758 0.8125 23.5625C0.8125 30.3807 6.25294 32 13 32C19.7518 32 25.1875 30.3779 25.1875 23.5625C25.1875 20.2758 23.9099 16.8191 21.6824 14.0787ZM9.3435 2.26362C10.5396 2.00544 11.7649 1.875 13 1.875C14.2351 1.875 15.4604 2.00544 16.6565 2.26362L14.5919 5.86375C13.5345 5.71613 12.4658 5.71619 11.4081 5.86381L9.3435 2.26362ZM9.956 8.1185C11.5694 7.58925 13.2574 7.48894 14.8985 7.817C14.9004 7.81737 14.9024 7.81775 14.9044 7.81812C15.2869 7.89487 15.6668 7.99475 16.0427 8.11806C16.534 8.28 16.8025 8.81144 16.6414 9.30188C16.5244 9.65706 16.2153 9.90169 15.8517 9.94131C14.917 9.64863 13.9636 9.5 13 9.5C12.0384 9.5 11.0868 9.648 10.1539 9.9395C9.78469 9.9015 9.47487 9.65512 9.35881 9.30275C9.1975 8.81144 9.466 8.27994 9.956 8.1185ZM13 30.1375C5.67525 30.1375 2.6875 28.2238 2.6875 23.5625C2.6875 20.7411 3.84081 17.6379 5.7725 15.2614C7.80969 12.7552 10.3764 11.375 13 11.375C15.8879 11.375 18.4138 13.0301 20.2275 15.2614C22.1592 17.6379 23.3125 20.7411 23.3125 23.5625C23.3125 28.2238 20.3247 30.1375 13 30.1375Z" fill="url(#paint0_linear_0_3054)"/>
<defs>
<linearGradient id="paint0_linear_0_3054" x1="-0.771876" y1="38.8" x2="37.9621" y2="21.0092" gradientUnits="userSpaceOnUse">
<stop stop-color="#1C1A9D"/>
<stop offset="1" stop-color="#DC78FF"/>
</linearGradient>
</defs>
</svg>
