<svg width="34" height="34" viewBox="0 0 34 34" fill="none" xmlns="http://www.w3.org/2000/svg">
<g id="email 2">
<g id="Group">
<g id="Group_2">
<path id="Vector" d="M22.5371 17.1742L33.9993 24.4204V9.62195L22.5371 17.1742Z" fill="url(#paint0_linear_0_3142)"/>
</g>
</g>
<g id="Group_3">
<g id="Group_4">
<path id="Vector_2" d="M0 9.62195V24.4204L11.4623 17.1742L0 9.62195Z" fill="url(#paint1_linear_0_3142)"/>
</g>
</g>
<g id="Group_5">
<g id="Group_6">
<path id="Vector_3" d="M31.8747 5.3125H2.12473C1.06435 5.3125 0.222852 6.103 0.0634766 7.12088L16.9997 18.2793L33.936 7.12088C33.7766 6.103 32.9351 5.3125 31.8747 5.3125Z" fill="url(#paint2_linear_0_3142)"/>
</g>
</g>
<g id="Group_7">
<g id="Group_8">
<path id="Vector_4" d="M20.5916 18.4578L17.5847 20.4383C17.4062 20.5552 17.2044 20.6126 17.0004 20.6126C16.7964 20.6126 16.5945 20.5552 16.416 20.4383L13.4091 18.4557L0.0683594 26.8941C0.231984 27.9034 1.06923 28.6876 2.12536 28.6876H31.8754C32.9315 28.6876 33.7687 27.9034 33.9324 26.8941L20.5916 18.4578Z" fill="url(#paint3_linear_0_3142)"/>
</g>
</g>
</g>
<defs>
<linearGradient id="paint0_linear_0_3142" x1="18.8339" y1="24.4204" x2="33.9101" y2="21.1678" gradientUnits="userSpaceOnUse">
<stop stop-color="#3331D1"/>
<stop offset="1" stop-color="#933FEE"/>
</linearGradient>
<linearGradient id="paint1_linear_0_3142" x1="-3.70319" y1="24.4204" x2="11.3731" y2="21.1678" gradientUnits="userSpaceOnUse">
<stop stop-color="#3331D1"/>
<stop offset="1" stop-color="#933FEE"/>
</linearGradient>
<linearGradient id="paint2_linear_0_3142" x1="-10.8799" y1="18.2793" x2="19.6058" y2="-3.90296" gradientUnits="userSpaceOnUse">
<stop stop-color="#3331D1"/>
<stop offset="1" stop-color="#933FEE"/>
</linearGradient>
<linearGradient id="paint3_linear_0_3142" x1="-10.8723" y1="28.6876" x2="14.3265" y2="5.45725" gradientUnits="userSpaceOnUse">
<stop stop-color="#3331D1"/>
<stop offset="1" stop-color="#933FEE"/>
</linearGradient>
</defs>
</svg>
